<?xml version="1.0" encoding="UTF-8"?>
<!-- Carte simplifiée de France - Source: OpenStreetMap / Public Domain -->
<svg xmlns="http://www.w3.org/2000/svg" viewBox="0 0 600 700">
  <path d="M 120,240 115,235 108,228 100,218 95,205 92,190 90,175 92,160 97,148 105,138 115,130 128,124 142,120 157,118 172,118 187,120 202,124 217,129 232,136 247,144 262,153 277,163 292,174 307,186 322,198 337,210 352,221 367,231 382,239 397,246 412,251 427,255 442,257 457,258 472,258 487,256 502,253 517,249 532,244 547,238 560,231 571,224 580,217 587,211 592,206 595,203 597,202 598,203 599,206 600,211 600,218 600,227 599,238 598,251 596,266 594,282 591,299 587,317 582,336 576,356 569,376 561,397 552,418 542,439 531,460 519,481 506,502 492,523 477,544 461,565 444,585 426,603 407,619 387,633 366,644 344,653 321,659 297,663 272,664 246,663 220,659 194,653 168,644 143,633 120,620 100,605 83,588 69,569 58,549 50,527 44,504 40,480 38,455 37,429 38,403 40,377 44,351 49,325 56,299 64,274 74,250 85,228 98,208 z"
        fill="#e0f2fe"
        stroke="#0284c7"
        stroke-width="2"/>
</svg>
